<svg width="197pt" height="277pt" viewBox="0.00 0.00 197.24 276.80" xmlns="http://www.w3.org/2000/svg" xmlns:xlink="http://www.w3.org/1999/xlink">
<g id="graph0" class="graph" transform="scale(1 1) rotate(0) translate(4 272.8)">
<title>G</title>
<polygon fill="white" stroke="none" points="-4,4 -4,-272.8 193.24,-272.8 193.24,4 -4,4"/>
<!-- root -->
<g id="node1" class="node">
<title>root</title>
<ellipse fill="none" stroke="black" cx="126.24" cy="-234" rx="27" ry="18"/>
<text text-anchor="middle" x="126.24" y="-229.8" font-family="Times,serif" font-size="14.00">10</text>
<text text-anchor="middle" x="49.62" y="-256.2" font-family="Times,serif" font-size="14.00">Balance Factor=2</text>
</g>
<!-- child -->
<g id="node2" class="node">
<title>child</title>
<ellipse fill="none" stroke="black" cx="90.24" cy="-162" rx="27" ry="18"/>
<text text-anchor="middle" x="90.24" y="-157.8" font-family="Times,serif" font-size="14.00">3</text>
<text text-anchor="middle" x="49.25" y="-184.2" font-family="Times,serif" font-size="14.00">child</text>
</g>
<!-- root&#45;&gt;child -->
<g id="edge1" class="edge">
<title>root-&gt;child</title>
<path fill="none" stroke="black" d="M117.89,-216.76C113.67,-208.55 108.44,-198.37 103.66,-189.09"/>
<polygon fill="black" stroke="black" points="106.93,-187.79 99.24,-180.49 100.7,-190.99 106.93,-187.79"/>
</g>
<!-- another -->
<g id="node3" class="node">
<title>another</title>
<ellipse fill="none" stroke="black" cx="162.24" cy="-162" rx="27" ry="18"/>
<text text-anchor="middle" x="162.24" y="-157.8" font-family="Times,serif" font-size="14.00">15</text>
</g>
<!-- root&#45;&gt;another -->
<g id="edge2" class="edge">
<title>root-&gt;another</title>
<path fill="none" stroke="black" d="M134.59,-216.76C138.82,-208.55 144.05,-198.37 148.83,-189.09"/>
<polygon fill="black" stroke="black" points="151.79,-190.99 153.25,-180.49 145.56,-187.79 151.79,-190.99"/>
</g>
<!-- 1 -->
<g id="node4" class="node">
<title>1</title>
<ellipse fill="none" stroke="black" cx="54.24" cy="-90" rx="27" ry="18"/>
<text text-anchor="middle" x="54.24" y="-85.8" font-family="Times,serif" font-size="14.00">1</text>
</g>
<!-- child&#45;&gt;1 -->
<g id="edge3" class="edge">
<title>child-&gt;1</title>
<path fill="none" stroke="black" d="M81.89,-144.76C77.67,-136.55 72.44,-126.37 67.66,-117.09"/>
<polygon fill="black" stroke="black" points="70.93,-115.79 63.24,-108.49 64.7,-118.99 70.93,-115.79"/>
</g>
<!-- 7 -->
<g id="node5" class="node">
<title>7</title>
<ellipse fill="none" stroke="black" cx="126.24" cy="-90" rx="27" ry="18"/>
<text text-anchor="middle" x="126.24" y="-85.8" font-family="Times,serif" font-size="14.00">7</text>
</g>
<!-- child&#45;&gt;7 -->
<g id="edge4" class="edge">
<title>child-&gt;7</title>
<path fill="none" stroke="black" d="M98.59,-144.76C102.82,-136.55 108.05,-126.37 112.83,-117.09"/>
<polygon fill="black" stroke="black" points="115.79,-118.99 117.25,-108.49 109.56,-115.79 115.79,-118.99"/>
</g>
<!-- 4 -->
<g id="node6" class="node">
<title>4</title>
<ellipse fill="none" stroke="black" cx="90.24" cy="-18" rx="27" ry="18"/>
<text text-anchor="middle" x="90.24" y="-13.8" font-family="Times,serif" font-size="14.00">4</text>
</g>
<!-- 7&#45;&gt;4 -->
<g id="edge5" class="edge">
<title>7-&gt;4</title>
<path fill="none" stroke="black" d="M117.89,-72.76C113.67,-64.55 108.44,-54.37 103.66,-45.09"/>
<polygon fill="black" stroke="black" points="106.93,-43.79 99.24,-36.49 100.7,-46.99 106.93,-43.79"/>
</g>
<!-- 8 -->
<g id="node7" class="node">
<title>8</title>
<ellipse fill="none" stroke="black" cx="162.24" cy="-18" rx="27" ry="18"/>
<text text-anchor="middle" x="162.24" y="-13.8" font-family="Times,serif" font-size="14.00">8</text>
</g>
<!-- 7&#45;&gt;8 -->
<g id="edge6" class="edge">
<title>7-&gt;8</title>
<path fill="none" stroke="black" d="M134.59,-72.76C138.82,-64.55 144.05,-54.37 148.83,-45.09"/>
<polygon fill="black" stroke="black" points="151.79,-46.99 153.25,-36.49 145.56,-43.79 151.79,-46.99"/>
</g>
</g>
</svg>