<svg width="296pt" height="188pt" viewBox="0.00 0.00 296.00 188.00" xmlns="http://www.w3.org/2000/svg" xmlns:xlink="http://www.w3.org/1999/xlink">
<g id="graph0" class="graph" transform="scale(1 1) rotate(0) translate(4 184)">
<title>G</title>
<polygon fill="white" stroke="none" points="-4,4 -4,-184 292,-184 292,4 -4,4"/>
<!-- 7 -->
<g id="node1" class="node">
<title>7</title>
<ellipse fill="none" stroke="black" cx="135" cy="-162" rx="27" ry="18"/>
<text text-anchor="middle" x="135" y="-157.8" font-family="Times,serif" font-size="14.00">7</text>
</g>
<!-- 3 -->
<g id="node2" class="node">
<title>3</title>
<ellipse fill="none" stroke="black" cx="63" cy="-90" rx="27" ry="18"/>
<text text-anchor="middle" x="63" y="-85.8" font-family="Times,serif" font-size="14.00">3</text>
</g>
<!-- 7&#45;&gt;3 -->
<g id="edge1" class="edge">
<title>7-&gt;3</title>
<path fill="none" stroke="black" d="M120.08,-146.5C110.23,-136.92 97.14,-124.19 85.97,-113.34"/>
<polygon fill="black" stroke="black" points="88.59,-111 78.98,-106.54 83.71,-116.02 88.59,-111"/>
</g>
<!-- _7 -->
<!-- 7&#45;&gt;_7 -->
<!-- 10 -->
<g id="node4" class="node">
<title>10</title>
<ellipse fill="none" stroke="black" cx="207" cy="-90" rx="27" ry="18"/>
<text text-anchor="middle" x="207" y="-85.8" font-family="Times,serif" font-size="14.00">10</text>
</g>
<!-- 7&#45;&gt;10 -->
<g id="edge3" class="edge">
<title>7-&gt;10</title>
<path fill="none" stroke="black" d="M149.92,-146.5C159.77,-136.92 172.86,-124.19 184.03,-113.34"/>
<polygon fill="black" stroke="black" points="186.29,-116.02 191.02,-106.54 181.41,-111 186.29,-116.02"/>
</g>
<!-- 1 -->
<g id="node7" class="node">
<title>1</title>
<ellipse fill="none" stroke="black" cx="27" cy="-18" rx="27" ry="18"/>
<text text-anchor="middle" x="27" y="-13.8" font-family="Times,serif" font-size="14.00">1</text>
</g>
<!-- 3&#45;&gt;1 -->
<g id="edge6" class="edge">
<title>3-&gt;1</title>
<path fill="none" stroke="black" d="M54.65,-72.76C50.42,-64.55 45.19,-54.37 40.42,-45.09"/>
<polygon fill="black" stroke="black" points="43.68,-43.79 36,-36.49 37.46,-46.99 43.68,-43.79"/>
</g>
<!-- 4 -->
<g id="node8" class="node">
<title>4</title>
<ellipse fill="none" stroke="black" cx="99" cy="-18" rx="27" ry="18"/>
<text text-anchor="middle" x="99" y="-13.8" font-family="Times,serif" font-size="14.00">4</text>
</g>
<!-- 3&#45;&gt;4 -->
<g id="edge7" class="edge">
<title>3-&gt;4</title>
<path fill="none" stroke="black" d="M71.35,-72.76C75.58,-64.55 80.81,-54.37 85.58,-45.09"/>
<polygon fill="black" stroke="black" points="88.54,-46.99 90,-36.49 82.32,-43.79 88.54,-46.99"/>
</g>
<!-- 8 -->
<g id="node5" class="node">
<title>8</title>
<ellipse fill="none" stroke="black" cx="189" cy="-18" rx="27" ry="18"/>
<text text-anchor="middle" x="189" y="-13.8" font-family="Times,serif" font-size="14.00">8</text>
</g>
<!-- 10&#45;&gt;8 -->
<g id="edge4" class="edge">
<title>10-&gt;8</title>
<path fill="none" stroke="black" d="M202.64,-72.05C200.7,-64.49 198.35,-55.37 196.16,-46.85"/>
<polygon fill="black" stroke="black" points="199.57,-46.07 193.69,-37.25 192.79,-47.81 199.57,-46.07"/>
</g>
<!-- 15 -->
<g id="node6" class="node">
<title>15</title>
<ellipse fill="none" stroke="black" cx="261" cy="-18" rx="27" ry="18"/>
<text text-anchor="middle" x="261" y="-13.8" font-family="Times,serif" font-size="14.00">15</text>
</g>
<!-- 10&#45;&gt;15 -->
<g id="edge5" class="edge">
<title>10-&gt;15</title>
<path fill="none" stroke="black" d="M218.98,-73.46C225.77,-64.67 234.4,-53.48 242.08,-43.53"/>
<polygon fill="black" stroke="black" points="244.79,-45.75 248.12,-35.69 239.25,-41.47 244.79,-45.75"/>
</g>
</g>
</svg>