<svg width="170pt" height="260pt" viewBox="0.00 0.00 170.00 260.00" xmlns="http://www.w3.org/2000/svg" xmlns:xlink="http://www.w3.org/1999/xlink">
<g id="graph0" class="graph" transform="scale(1 1) rotate(0) translate(4 256)">
<title>G</title>
<polygon fill="white" stroke="none" points="-4,4 -4,-256 166,-256 166,4 -4,4"/>
<!-- G -->
<g id="node1" class="node">
<title>G</title>
<ellipse fill="none" stroke="black" cx="99" cy="-234" rx="27" ry="18"/>
<text text-anchor="middle" x="99" y="-229.8" font-family="Times,serif" font-size="14.00">G</text>
</g>
<!-- P -->
<g id="node2" class="node">
<title>P</title>
<ellipse fill="none" stroke="black" cx="63" cy="-162" rx="27" ry="18"/>
<text text-anchor="middle" x="63" y="-157.8" font-family="Times,serif" font-size="14.00">P</text>
</g>
<!-- G&#45;&gt;P -->
<g id="edge1" class="edge">
<title>G-&gt;P</title>
<path fill="none" stroke="black" d="M90.65,-216.76C86.42,-208.55 81.19,-198.37 76.42,-189.09"/>
<polygon fill="black" stroke="black" points="79.68,-187.79 72,-180.49 73.46,-190.99 79.68,-187.79"/>
</g>
<!-- D -->
<g id="node3" class="node">
<title>D</title>
<ellipse fill="none" stroke="black" cx="135" cy="-162" rx="27" ry="18"/>
<text text-anchor="middle" x="135" y="-157.8" font-family="Times,serif" font-size="14.00">D</text>
</g>
<!-- G&#45;&gt;D -->
<g id="edge2" class="edge">
<title>G-&gt;D</title>
<path fill="none" stroke="black" d="M107.35,-216.76C111.58,-208.55 116.81,-198.37 121.58,-189.09"/>
<polygon fill="black" stroke="black" points="124.54,-190.99 126,-180.49 118.32,-187.79 124.54,-190.99"/>
</g>
<!-- A -->
<g id="node4" class="node">
<title>A</title>
<ellipse fill="none" stroke="black" cx="27" cy="-90" rx="27" ry="18"/>
<text text-anchor="middle" x="27" y="-85.8" font-family="Times,serif" font-size="14.00">A</text>
</g>
<!-- P&#45;&gt;A -->
<g id="edge3" class="edge">
<title>P-&gt;A</title>
<path fill="none" stroke="black" d="M54.65,-144.76C50.42,-136.55 45.19,-126.37 40.42,-117.09"/>
<polygon fill="black" stroke="black" points="43.68,-115.79 36,-108.49 37.46,-118.99 43.68,-115.79"/>
</g>
<!-- X -->
<g id="node5" class="node">
<title>X</title>
<ellipse fill="none" stroke="black" cx="99" cy="-90" rx="27" ry="18"/>
<text text-anchor="middle" x="99" y="-85.8" font-family="Times,serif" font-size="14.00">X</text>
</g>
<!-- P&#45;&gt;X -->
<g id="edge4" class="edge">
<title>P-&gt;X</title>
<path fill="none" stroke="black" d="M71.35,-144.76C75.58,-136.55 80.81,-126.37 85.58,-117.09"/>
<polygon fill="black" stroke="black" points="88.54,-118.99 90,-108.49 82.32,-115.79 88.54,-118.99"/>
</g>
<!-- B -->
<g id="node6" class="node">
<title>B</title>
<ellipse fill="none" stroke="black" cx="63" cy="-18" rx="27" ry="18"/>
<text text-anchor="middle" x="63" y="-13.8" font-family="Times,serif" font-size="14.00">B</text>
</g>
<!-- X&#45;&gt;B -->
<g id="edge5" class="edge">
<title>X-&gt;B</title>
<path fill="none" stroke="black" d="M90.65,-72.76C86.42,-64.55 81.19,-54.37 76.42,-45.09"/>
<polygon fill="black" stroke="black" points="79.68,-43.79 72,-36.49 73.46,-46.99 79.68,-43.79"/>
</g>
<!-- C -->
<g id="node7" class="node">
<title>C</title>
<ellipse fill="none" stroke="black" cx="135" cy="-18" rx="27" ry="18"/>
<text text-anchor="middle" x="135" y="-13.8" font-family="Times,serif" font-size="14.00">C</text>
</g>
<!-- X&#45;&gt;C -->
<g id="edge6" class="edge">
<title>X-&gt;C</title>
<path fill="none" stroke="black" d="M107.35,-72.76C111.58,-64.55 116.81,-54.37 121.58,-45.09"/>
<polygon fill="black" stroke="black" points="124.54,-46.99 126,-36.49 118.32,-43.79 124.54,-46.99"/>
</g>
</g>
</svg>