<svg width="235pt" height="277pt" viewBox="0.00 0.00 234.93 276.80" xmlns="http://www.w3.org/2000/svg" xmlns:xlink="http://www.w3.org/1999/xlink">
<g id="graph0" class="graph" transform="scale(1 1) rotate(0) translate(4 272.8)">
<title>G</title>
<polygon fill="white" stroke="none" points="-4,4 -4,-272.8 230.93,-272.8 230.93,4 -4,4"/>
<!-- root -->
<g id="node1" class="node">
<title>root</title>
<ellipse fill="none" stroke="black" cx="163.93" cy="-234" rx="27" ry="18"/>
<text text-anchor="middle" x="163.93" y="-229.8" font-family="Times,serif" font-size="14.00">10</text>
<text text-anchor="middle" x="87.31" y="-256.2" font-family="Times,serif" font-size="14.00">Balance Factor=2</text>
</g>
<!-- 7 -->
<g id="node3" class="node">
<title>7</title>
<ellipse fill="none" stroke="black" cx="127.93" cy="-162" rx="27" ry="18"/>
<text text-anchor="middle" x="127.93" y="-157.8" font-family="Times,serif" font-size="14.00">7</text>
<text text-anchor="middle" x="73.53" y="-184.2" font-family="Times,serif" font-size="14.00">new child</text>
</g>
<!-- root&#45;&gt;7 -->
<g id="edge1" class="edge">
<title>root-&gt;7</title>
<path fill="none" stroke="black" d="M155.58,-216.76C151.36,-208.55 146.13,-198.37 141.35,-189.09"/>
<polygon fill="black" stroke="black" points="144.62,-187.79 136.93,-180.49 138.39,-190.99 144.62,-187.79"/>
</g>
<!-- another -->
<g id="node4" class="node">
<title>another</title>
<ellipse fill="none" stroke="black" cx="199.93" cy="-162" rx="27" ry="18"/>
<text text-anchor="middle" x="199.93" y="-157.8" font-family="Times,serif" font-size="14.00">15</text>
</g>
<!-- root&#45;&gt;another -->
<g id="edge2" class="edge">
<title>root-&gt;another</title>
<path fill="none" stroke="black" d="M172.28,-216.76C176.51,-208.55 181.74,-198.37 186.52,-189.09"/>
<polygon fill="black" stroke="black" points="189.48,-190.99 190.94,-180.49 183.25,-187.79 189.48,-190.99"/>
</g>
<!-- child -->
<g id="node2" class="node">
<title>child</title>
<ellipse fill="none" stroke="black" cx="91.93" cy="-90" rx="27" ry="18"/>
<text text-anchor="middle" x="91.93" y="-85.8" font-family="Times,serif" font-size="14.00">3</text>
<text text-anchor="middle" x="32.47" y="-112.2" font-family="Times,serif" font-size="14.00">origin child</text>
</g>
<!-- 1 -->
<g id="node6" class="node">
<title>1</title>
<ellipse fill="none" stroke="black" cx="55.93" cy="-18" rx="27" ry="18"/>
<text text-anchor="middle" x="55.93" y="-13.8" font-family="Times,serif" font-size="14.00">1</text>
</g>
<!-- child&#45;&gt;1 -->
<g id="edge5" class="edge">
<title>child-&gt;1</title>
<path fill="none" stroke="black" d="M83.58,-72.76C79.36,-64.55 74.13,-54.37 69.35,-45.09"/>
<polygon fill="black" stroke="black" points="72.62,-43.79 64.93,-36.49 66.39,-46.99 72.62,-43.79"/>
</g>
<!-- 4 -->
<g id="node7" class="node">
<title>4</title>
<ellipse fill="none" stroke="black" cx="127.93" cy="-18" rx="27" ry="18"/>
<text text-anchor="middle" x="127.93" y="-13.8" font-family="Times,serif" font-size="14.00">4</text>
</g>
<!-- child&#45;&gt;4 -->
<g id="edge6" class="edge">
<title>child-&gt;4</title>
<path fill="none" stroke="black" d="M100.28,-72.76C104.51,-64.55 109.74,-54.37 114.52,-45.09"/>
<polygon fill="black" stroke="black" points="117.48,-46.99 118.94,-36.49 111.25,-43.79 117.48,-46.99"/>
</g>
<!-- 7&#45;&gt;child -->
<g id="edge3" class="edge">
<title>7-&gt;child</title>
<path fill="none" stroke="black" d="M119.58,-144.76C115.36,-136.55 110.13,-126.37 105.35,-117.09"/>
<polygon fill="black" stroke="black" points="108.62,-115.79 100.93,-108.49 102.39,-118.99 108.62,-115.79"/>
</g>
<!-- 8 -->
<g id="node5" class="node">
<title>8</title>
<ellipse fill="none" stroke="black" cx="163.93" cy="-90" rx="27" ry="18"/>
<text text-anchor="middle" x="163.93" y="-85.8" font-family="Times,serif" font-size="14.00">8</text>
</g>
<!-- 7&#45;&gt;8 -->
<g id="edge4" class="edge">
<title>7-&gt;8</title>
<path fill="none" stroke="black" d="M136.28,-144.76C140.51,-136.55 145.74,-126.37 150.52,-117.09"/>
<polygon fill="black" stroke="black" points="153.48,-118.99 154.94,-108.49 147.25,-115.79 153.48,-118.99"/>
</g>
</g>
</svg>