<svg width="494pt" height="188pt" viewBox="0.00 0.00 494.00 188.00" xmlns="http://www.w3.org/2000/svg" xmlns:xlink="http://www.w3.org/1999/xlink">
<g id="graph0" class="graph" transform="scale(1 1) rotate(0) translate(4 184)">
<title>G</title>
<polygon fill="white" stroke="none" points="-4,4 -4,-184 490,-184 490,4 -4,4"/>
<!-- X -->
<g id="node1" class="node">
<title>X</title>
<ellipse fill="none" stroke="black" cx="243" cy="-162" rx="27" ry="18"/>
<text text-anchor="middle" x="243" y="-157.8" font-family="Times,serif" font-size="14.00">X</text>
</g>
<!-- P -->
<g id="node2" class="node">
<title>P</title>
<ellipse fill="none" stroke="black" cx="99" cy="-90" rx="27" ry="18"/>
<text text-anchor="middle" x="99" y="-85.8" font-family="Times,serif" font-size="14.00">P</text>
</g>
<!-- X&#45;&gt;P -->
<g id="edge1" class="edge">
<title>X-&gt;P</title>
<path fill="none" stroke="black" d="M221.44,-150.52C197.34,-138.8 158.08,-119.72 130.53,-106.32"/>
<polygon fill="black" stroke="black" points="132.12,-103.21 121.6,-101.98 129.06,-109.5 132.12,-103.21"/>
</g>
<!-- _X -->
<!-- X&#45;&gt;_X -->
<!-- G -->
<g id="node4" class="node">
<title>G</title>
<ellipse fill="none" stroke="black" cx="387" cy="-90" rx="27" ry="18"/>
<text text-anchor="middle" x="387" y="-85.8" font-family="Times,serif" font-size="14.00">G</text>
</g>
<!-- X&#45;&gt;G -->
<g id="edge3" class="edge">
<title>X-&gt;G</title>
<path fill="none" stroke="black" d="M264.56,-150.52C288.66,-138.8 327.92,-119.72 355.47,-106.32"/>
<polygon fill="black" stroke="black" points="356.94,-109.5 364.4,-101.98 353.88,-103.21 356.94,-109.5"/>
</g>
<!-- A -->
<g id="node5" class="node">
<title>A</title>
<ellipse fill="none" stroke="black" cx="27" cy="-18" rx="27" ry="18"/>
<text text-anchor="middle" x="27" y="-13.8" font-family="Times,serif" font-size="14.00">A</text>
</g>
<!-- P&#45;&gt;A -->
<g id="edge4" class="edge">
<title>P-&gt;A</title>
<path fill="none" stroke="black" d="M84.08,-74.5C74.23,-64.92 61.14,-52.19 49.97,-41.34"/>
<polygon fill="black" stroke="black" points="52.59,-39 42.98,-34.54 47.71,-44.02 52.59,-39"/>
</g>
<!-- _P -->
<!-- P&#45;&gt;_P -->
<!-- B -->
<g id="node7" class="node">
<title>B</title>
<ellipse fill="none" stroke="black" cx="171" cy="-18" rx="27" ry="18"/>
<text text-anchor="middle" x="171" y="-13.8" font-family="Times,serif" font-size="14.00">B</text>
</g>
<!-- P&#45;&gt;B -->
<g id="edge6" class="edge">
<title>P-&gt;B</title>
<path fill="none" stroke="black" d="M113.92,-74.5C123.77,-64.92 136.86,-52.19 148.03,-41.34"/>
<polygon fill="black" stroke="black" points="150.29,-44.02 155.02,-34.54 145.41,-39 150.29,-44.02"/>
</g>
<!-- C -->
<g id="node8" class="node">
<title>C</title>
<ellipse fill="none" stroke="black" cx="315" cy="-18" rx="27" ry="18"/>
<text text-anchor="middle" x="315" y="-13.8" font-family="Times,serif" font-size="14.00">C</text>
</g>
<!-- G&#45;&gt;C -->
<g id="edge7" class="edge">
<title>G-&gt;C</title>
<path fill="none" stroke="black" d="M372.08,-74.5C362.23,-64.92 349.14,-52.19 337.97,-41.34"/>
<polygon fill="black" stroke="black" points="340.59,-39 330.98,-34.54 335.71,-44.02 340.59,-39"/>
</g>
<!-- _G -->
<!-- G&#45;&gt;_G -->
<!-- D -->
<g id="node10" class="node">
<title>D</title>
<ellipse fill="none" stroke="black" cx="459" cy="-18" rx="27" ry="18"/>
<text text-anchor="middle" x="459" y="-13.8" font-family="Times,serif" font-size="14.00">D</text>
</g>
<!-- G&#45;&gt;D -->
<g id="edge9" class="edge">
<title>G-&gt;D</title>
<path fill="none" stroke="black" d="M401.92,-74.5C411.77,-64.92 424.86,-52.19 436.03,-41.34"/>
<polygon fill="black" stroke="black" points="438.29,-44.02 443.02,-34.54 433.41,-39 438.29,-44.02"/>
</g>
</g>
</svg>